<!-- Generated by IcoMoon.io -->
<svg version="1.1" xmlns="http://www.w3.org/2000/svg" width="512" height="512" viewBox="0 0 512 512">
<title>search</title>
<g id="icomoon-ignore">
</g>
<path d="M436.099 390.774l-90.957-77.361c-9.403-8.463-19.459-12.347-27.582-11.973 21.471-25.15 34.441-57.779 34.441-93.44 0-79.529-64.471-144-144-144-79.528 0-144 64.471-144 144s64.471 144 144 144c35.661 0 68.29-12.969 93.44-34.442-0.375 8.123 3.51 18.179 11.973 27.582l77.361 90.957c13.245 14.717 34.883 15.957 48.082 2.758s11.96-34.837-2.757-48.082zM208 304c-53.019 0-96-42.981-96-96s42.981-96 96-96 96 42.981 96 96-42.981 96-96 96z"></path>
</svg>
